<svg xmlns="http://www.w3.org/2000/svg" viewBox="0 0 64 64" role="img" aria-label="OpenBuddy">
  <rect width="64" height="64" rx="14" fill="#FCF7E9"/>
  <path d="M14 22 L11 4 Q11.4 2.4 13.6 2.8 L20 8 Z" fill="#FCF7E9" stroke="#1F140A" stroke-width="2.4" stroke-linejoin="round"/>
  <path d="M50 22 L53 4 Q52.6 2.4 50.4 2.8 L44 8 Z" fill="#FCF7E9" stroke="#1F140A" stroke-width="2.4" stroke-linejoin="round"/>
  <path d="M32 14 Q18 14 14 28 Q12 36 18 40 Q24 44 32 44 Q40 44 46 40 Q52 36 50 28 Q46 14 32 14 Z"
        fill="#FCF7E9" stroke="#1F140A" stroke-width="2.8" stroke-linejoin="round"/>
  <ellipse cx="32" cy="38" rx="11" ry="6" fill="#FCF7E9" stroke="#1F140A" stroke-width="2"/>
  <path d="M32 44 Q14 44 12 56 Q11 62 18 64 Q25 64 32 64 Q39 64 46 64 Q53 62 52 56 Q50 44 32 44 Z"
        fill="#FCF7E9" stroke="#1F140A" stroke-width="2.8" stroke-linejoin="round"/>
  <ellipse cx="32" cy="56" rx="9" ry="6" fill="#D4A574" stroke="#1F140A" stroke-width="2"/>
</svg>
