<svg xmlns="http://www.w3.org/2000/svg" width="1480" height="320" viewBox="0 0 1480 320" role="img" aria-label="OpenBuddy">
  <defs>
    <radialGradient id="bg" cx="50%" cy="50%" r="70%">
      <stop stop-color="#FFFFFF"/>
      <stop offset="1" stop-color="#F2EBDC"/>
    </radialGradient>
    <radialGradient id="body" cx="50%" cy="35%" r="70%">
      <stop stop-color="#FFFFFF"/>
      <stop offset="1" stop-color="#F0E5C8"/>
    </radialGradient>
  </defs>
  <g transform="translate(32 32)">
    <rect x="0" y="0" width="256" height="256" rx="58" fill="url(#bg)"/>
    <path d="M70 78 L62 38 L86 50 L100 78 Z" fill="url(#body)" stroke="#1F140A" stroke-width="4" stroke-linejoin="round"/>
    <path d="M186 78 L194 38 L170 50 L156 78 Z" fill="url(#body)" stroke="#1F140A" stroke-width="4" stroke-linejoin="round"/>
    <ellipse cx="128" cy="116" rx="76" ry="54" fill="url(#body)" stroke="#1F140A" stroke-width="6"/>
    <ellipse cx="128" cy="152" rx="38" ry="22" fill="url(#body)" stroke="#1F140A" stroke-width="4"/>
    <path d="M128 168 Q72 168 60 210 Q54 234 80 244 Q104 252 128 252 Q152 252 176 244 Q202 234 196 210 Q184 168 128 168 Z"
          fill="url(#body)" stroke="#1F140A" stroke-width="6" stroke-linejoin="round"/>
    <ellipse cx="128" cy="200" rx="32" ry="22" fill="#09C8A7" stroke="#1F140A" stroke-width="4"/>
    <ellipse cx="100" cy="252" rx="14" ry="6" fill="url(#body)" stroke="#1F140A" stroke-width="4"/>
    <ellipse cx="156" cy="252" rx="14" ry="6" fill="url(#body)" stroke="#1F140A" stroke-width="4"/>
    <path d="M196 210 Q210 198 214 184 Q216 176 208 174 Q202 174 200 184 Q198 194 184 200 Z"
          fill="url(#body)" stroke="#1F140A" stroke-width="4" stroke-linejoin="round"/>
  </g>
  <g transform="translate(330 0)" font-family="Inter, -apple-system, BlinkMacSystemFont, 'Segoe UI', Roboto, system-ui, sans-serif">
    <text x="0" y="190" font-size="148" font-weight="700" letter-spacing="-3" fill="#1F140A">Open<tspan font-weight="700" fill="#008C75">Buddy</tspan></text>
    <text x="4" y="240" font-size="28" font-weight="500" letter-spacing="6" fill="#5C5040">OPEN · ADAPTIVE · AI WORKBENCH</text>
  </g>
</svg>
