<svg xmlns="http://www.w3.org/2000/svg" viewBox="0 0 32 32" role="img" aria-label="OpenBuddy">
  <circle cx="16" cy="16" r="14" fill="#0F0D24"/>
  <path d="M6 14 Q6 7 16 7 Q26 7 26 14 Z" fill="#FF8FBE"/>
  <ellipse cx="10" cy="12" rx="2" ry="1.5" fill="#FFFFFF"/>
  <ellipse cx="22" cy="12" rx="2.2" ry="1.6" fill="#FFFFFF"/>
  <ellipse cx="16" cy="10" rx="1.2" ry="1" fill="#FFFFFF"/>
  <rect x="7" y="14" width="18" height="14" rx="6" fill="#F0EDFF"/>
  <rect x="9" y="18" width="14" height="4.5" rx="2.2" fill="#9C95E8"/>
  <circle cx="13" cy="20.5" r="2.2" fill="#FFFFFF"/>
  <circle cx="19" cy="20.5" r="2.2" fill="#FFFFFF"/>
  <circle cx="13" cy="21.5" r="1.2" fill="#0F0D24"/>
  <circle cx="19" cy="21.5" r="1.2" fill="#0F0D24"/>
  <ellipse cx="13.4" cy="20.2" rx="0.5" ry="0.8" fill="#FFFFFF"/>
  <ellipse cx="19.4" cy="20.2" rx="0.5" ry="0.8" fill="#FFFFFF"/>
  <path d="M13 26 Q16 28 19 26" fill="none" stroke="#9C95E8" stroke-width="1.2" stroke-linecap="round"/>
  <circle cx="26" cy="6" r="1" fill="#FFFFFF"/>
</svg>
